<svg width="24" height="24" viewBox="0 0 24 24" fill="none" xmlns="http://www.w3.org/2000/svg">
<path d="M13.2833 15.1535C13.5689 14.846 13.7438 14.4362 13.7438 13.9874C13.7438 13.036 12.9617 12.2617 12.0001 12.2617C11.0385 12.2617 10.2564 13.036 10.2564 13.9874C10.2564 14.437 10.4313 14.8468 10.7169 15.1535C10.3821 15.2963 10.0816 15.5157 9.8412 15.7974C9.47905 16.2228 9.28001 16.7637 9.28001 17.3194V18.3739C9.28001 18.587 9.45329 18.7602 9.66637 18.7602H14.3337C14.5468 18.7602 14.7201 18.587 14.7201 18.3739V17.3194C14.7201 16.7637 14.5211 16.2228 14.1589 15.7974C13.9193 15.5157 13.6181 15.2956 13.2833 15.1535ZM12.0001 12.7909C12.6698 12.7909 13.2138 13.3272 13.2138 13.9867C13.2138 14.6462 12.669 15.1824 12.0001 15.1824C11.3304 15.1824 10.7864 14.6462 10.7864 13.9867C10.7864 13.3272 11.3312 12.7909 12.0001 12.7909ZM14.191 18.2312H9.80917V17.3188C9.80917 16.4586 10.4055 15.7226 11.2383 15.5376C11.4685 15.6493 11.7269 15.7117 12.0001 15.7117C12.2732 15.7117 12.5316 15.6493 12.7618 15.5376C13.5946 15.7226 14.1909 16.4579 14.1909 17.3188L14.191 18.2312ZM7.00324 15.1537C7.28891 14.8462 7.46374 14.4364 7.46374 13.9876C7.46374 13.0362 6.68166 12.2619 5.72008 12.2619C4.75849 12.2619 3.97641 13.0362 3.97641 13.9876C3.97641 14.4372 4.15125 14.847 4.43692 15.1537C4.10207 15.2965 3.80158 15.5159 3.56119 15.7976C3.19903 16.223 3 16.7639 3 17.3196V18.3741C3 18.5872 3.17327 18.7604 3.38635 18.7604H8.05372C8.2668 18.7604 8.44007 18.5872 8.44007 18.3741V17.3196C8.44007 16.7639 8.24104 16.223 7.87889 15.7976C7.63927 15.5159 7.33808 15.2958 7.00324 15.1537ZM5.72008 12.7911C6.38976 12.7911 6.93376 13.3274 6.93376 13.9869C6.93376 14.6464 6.38896 15.1826 5.72008 15.1826C5.05039 15.1826 4.50639 14.6464 4.50639 13.9869C4.50639 13.3274 5.05119 12.7911 5.72008 12.7911ZM7.91099 18.2314H3.52916V17.319C3.52916 16.4588 4.12547 15.7228 4.95826 15.5378C5.1885 15.6495 5.44686 15.7119 5.72004 15.7119C5.99322 15.7119 6.25157 15.6495 6.48181 15.5378C7.31462 15.7228 7.91091 16.4581 7.91091 17.319L7.91099 18.2314ZM20.4389 15.7977C20.1993 15.5159 19.898 15.2958 19.5632 15.1538C19.8488 14.8462 20.0237 14.4365 20.0237 13.9877C20.0237 13.0363 19.2416 12.262 18.28 12.262C17.3184 12.262 16.5363 13.0363 16.5363 13.9877C16.5363 14.4373 16.7112 14.847 16.9968 15.1538C16.662 15.2966 16.3615 15.5159 16.1211 15.7977C15.759 16.2231 15.5599 16.764 15.5599 17.3197V18.3741C15.5599 18.5872 15.7332 18.7605 15.9463 18.7605H20.6136C20.8267 18.7605 21 18.5872 21 18.3741V17.3197C21 16.764 20.8011 16.2231 20.4389 15.7977ZM18.2799 12.7911C18.9496 12.7911 19.4936 13.3274 19.4936 13.9869C19.4936 14.6464 18.9488 15.1826 18.2799 15.1826C17.6103 15.1826 17.0663 14.6464 17.0663 13.9869C17.0663 13.3274 17.6111 12.7911 18.2799 12.7911ZM20.4709 18.2314H16.089V17.319C16.089 16.4588 16.6853 15.7228 17.5181 15.5378C17.7484 15.6495 18.0067 15.7119 18.2799 15.7119C18.5531 15.7119 18.8114 15.6495 19.0417 15.5378C19.8745 15.7228 20.4708 16.4581 20.4708 17.319L20.4709 18.2314ZM5.72008 11.3793C7.20305 11.3793 8.40972 10.1726 8.40972 8.68964C8.40972 7.20667 7.20305 6 5.72008 6C4.2371 6 3.03043 7.20667 3.03043 8.68964C3.03043 10.1726 4.2371 11.3793 5.72008 11.3793ZM5.72008 6.5299C6.91112 6.5299 7.87982 7.4993 7.87982 8.68964C7.87982 9.88069 6.91043 10.8494 5.72008 10.8494C4.52903 10.8494 3.56033 9.87999 3.56033 8.68964C3.56033 7.4986 4.52973 6.5299 5.72008 6.5299ZM12.0001 11.3793C13.4831 11.3793 14.6898 10.1726 14.6898 8.68964C14.6898 7.20667 13.4831 6 12.0001 6C10.5171 6 9.31047 7.20667 9.31047 8.68964C9.31047 10.1726 10.5171 11.3793 12.0001 11.3793ZM12.0001 6.5299C13.1912 6.5299 14.1599 7.4993 14.1599 8.68964C14.1599 9.88069 13.1905 10.8494 12.0001 10.8494C10.8091 10.8494 9.84036 9.87999 9.84036 8.68964C9.84036 7.4986 10.8098 6.5299 12.0001 6.5299ZM18.2801 11.3793C19.7631 11.3793 20.9698 10.1726 20.9698 8.68964C20.9698 7.20667 19.7631 6 18.2801 6C16.7972 6 15.5905 7.20667 15.5905 8.68964C15.5905 10.1726 16.7972 11.3793 18.2801 11.3793ZM18.2801 6.5299C19.4712 6.5299 20.4399 7.4993 20.4399 8.68964C20.4399 9.88069 19.4705 10.8494 18.2801 10.8494C17.0891 10.8494 16.1204 9.87999 16.1204 8.68964C16.1204 7.4986 17.0898 6.5299 18.2801 6.5299ZM10.9121 9.38179L11.6263 8.66763L10.9121 7.95346C10.8091 7.85044 10.8091 7.68262 10.9121 7.57882C11.0152 7.47579 11.183 7.47579 11.2868 7.57882L12.0009 8.29298L12.7151 7.57882C12.8181 7.47579 12.986 7.47579 13.0898 7.57882C13.1928 7.68185 13.1928 7.84966 13.0898 7.95346L12.3756 8.66763L13.0898 9.38179C13.1928 9.48481 13.1928 9.65263 13.0898 9.75643C13.0382 9.80794 12.9703 9.8337 12.9024 9.8337C12.8345 9.8337 12.7666 9.80794 12.7151 9.75643L12.0009 9.04227L11.2868 9.75643C11.1838 9.85946 11.0159 9.85946 10.9121 9.75643C10.8091 9.6534 10.8091 9.48559 10.9121 9.38179ZM4.50643 8.61298C4.60009 8.50058 4.76712 8.48575 4.87951 8.57942L5.38997 9.00557L6.542 7.82779C6.64424 7.7232 6.81206 7.72164 6.91586 7.82389C7.02045 7.92613 7.02201 8.09395 6.91976 8.19775L5.5968 9.55037C5.54529 9.60344 5.4766 9.62998 5.40792 9.62998C5.34782 9.62998 5.28772 9.60969 5.23855 9.56832L4.54077 8.98527C4.42838 8.89161 4.41355 8.72458 4.50721 8.61219L4.50643 8.61298ZM17.0663 8.61298C17.16 8.50058 17.327 8.48575 17.4394 8.57942L17.9498 9.00557L19.1019 7.82779C19.2041 7.7232 19.3719 7.72164 19.4757 7.82389C19.5803 7.92613 19.5819 8.09395 19.4796 8.19775L18.1567 9.55037C18.1052 9.60344 18.0365 9.62998 17.9678 9.62998C17.9077 9.62998 17.8476 9.60969 17.7984 9.56832L17.1006 8.98527C16.9882 8.89161 16.9734 8.72458 17.0671 8.61219L17.0663 8.61298Z" fill="black"/>
</svg>
