<svg width="24" height="24" viewBox="0 0 24 24" fill="none" xmlns="http://www.w3.org/2000/svg">
<path d="M11.0999 16.8H9.89986C9.73485 16.8 9.59985 16.665 9.59985 16.5C9.59985 16.335 9.73485 16.2 9.89986 16.2H10.7999V15.6H9.93885C9.77385 15.6 9.63885 15.465 9.63885 15.3C9.63885 15.135 9.77385 15 9.93885 15H11.0999C11.2649 15 11.3999 15.135 11.3999 15.3V16.5C11.3999 16.665 11.2649 16.8 11.0999 16.8Z" fill="currentColor"/>
<path d="M4.50001 16.8H3.3C3.135 16.8 3 16.665 3 16.5V15.3C3 15.135 3.135 15 3.3 15H4.46101C4.62601 15 4.76101 15.135 4.76101 15.3C4.76101 15.465 4.62601 15.6 4.46101 15.6H3.6V16.2H4.50001C4.66501 16.2 4.80001 16.335 4.80001 16.5C4.80001 16.665 4.66501 16.8 4.50001 16.8Z" fill="currentColor"/>
<path d="M8.09992 17.0999H6.29991C5.80491 17.0999 5.3999 16.6949 5.3999 16.1999V14.3999C5.3999 13.9049 5.80491 13.4999 6.29991 13.4999H8.09992C8.59491 13.4999 8.99992 13.9049 8.99992 14.3999V16.1999C8.99992 16.6949 8.59491 17.0999 8.09992 17.0999ZM6.29991 14.0999C6.13491 14.0999 5.99991 14.2349 5.99991 14.3999V16.1999C5.99991 16.3649 6.13491 16.4999 6.29991 16.4999H8.09992C8.26492 16.4999 8.39992 16.3649 8.39992 16.1999V14.3999C8.39992 14.2349 8.26492 14.0999 8.09992 14.0999H6.29991Z" fill="currentColor"/>
<path d="M8.10001 18.2999C7.93501 18.2999 7.80001 18.1649 7.80001 17.9999V17.0999H6.6V17.9999C6.6 18.1649 6.465 18.2999 6.3 18.2999C6.135 18.2999 6 18.1649 6 17.9999V16.7999C6 16.6349 6.135 16.4999 6.3 16.4999H8.10001C8.26501 16.4999 8.40001 16.6349 8.40001 16.7999V17.9999C8.40001 18.1649 8.26501 18.2999 8.10001 18.2999Z" fill="currentColor"/>
<path d="M8.69987 19.5H5.69986C5.36985 19.5 5.09985 19.23 5.09985 18.9V18.3C5.09985 17.9699 5.36985 17.7 5.69986 17.7H8.69987C9.02988 17.7 9.29988 17.9699 9.29988 18.3V18.9C9.29988 19.23 9.02988 19.5 8.69987 19.5ZM5.69986 18.3V18.9H8.69987V18.3H5.69986Z" fill="currentColor"/>
<path d="M5.99995 21C5.83495 21 5.69995 20.865 5.69995 20.7V19.2C5.69995 19.035 5.83495 18.9 5.99995 18.9C6.16495 18.9 6.29995 19.035 6.29995 19.2V20.7C6.29995 20.865 6.16495 21 5.99995 21Z" fill="currentColor"/>
<path d="M8.39986 21C8.23485 21 8.09985 20.865 8.09985 20.7V19.2C8.09985 19.035 8.23485 18.9 8.39986 18.9C8.56486 18.9 8.69986 19.035 8.69986 19.2V20.7C8.69986 20.865 8.56486 21 8.39986 21Z" fill="currentColor"/>
<path d="M10.5 21C10.335 21 10.2 20.865 10.2 20.7V16.5C10.2 16.335 10.335 16.2 10.5 16.2C10.665 16.2 10.8 16.335 10.8 16.5V20.7C10.8 20.865 10.665 21 10.5 21Z" fill="currentColor"/>
<path d="M3.89986 21C3.73485 21 3.59985 20.865 3.59985 20.7V16.5C3.59985 16.335 3.73485 16.2 3.89986 16.2C4.06486 16.2 4.19986 16.335 4.19986 16.5V20.7C4.19986 20.865 4.06486 21 3.89986 21Z" fill="currentColor"/>
<path d="M20.7 16.8H19.5C19.335 16.8 19.2 16.665 19.2 16.5C19.2 16.335 19.335 16.2 19.5 16.2H20.4V15.6H19.5389C19.3739 15.6 19.2389 15.465 19.2389 15.3C19.2389 15.135 19.3739 15 19.5389 15H20.7C20.865 15 21 15.135 21 15.3V16.5C21 16.665 20.865 16.8 20.7 16.8Z" fill="currentColor"/>
<path d="M14.1001 16.8H12.9001C12.7351 16.8 12.6001 16.665 12.6001 16.5V15.3C12.6001 15.135 12.7351 15 12.9001 15H14.0611C14.2261 15 14.3611 15.135 14.3611 15.3C14.3611 15.465 14.2261 15.6 14.0611 15.6H13.2001V16.2H14.1001C14.2651 16.2 14.4001 16.335 14.4001 16.5C14.4001 16.665 14.2651 16.8 14.1001 16.8Z" fill="currentColor"/>
<path d="M17.7 17.0999H15.9C15.405 17.0999 15 16.6949 15 16.1999V14.3999C15 13.9049 15.405 13.4999 15.9 13.4999H17.7C18.195 13.4999 18.6 13.9049 18.6 14.3999V16.1999C18.6 16.6949 18.195 17.0999 17.7 17.0999ZM15.9 14.0999C15.735 14.0999 15.6 14.2349 15.6 14.3999V16.1999C15.6 16.3649 15.735 16.4999 15.9 16.4999H17.7C17.865 16.4999 18 16.3649 18 16.1999V14.3999C18 14.2349 17.865 14.0999 17.7 14.0999H15.9Z" fill="currentColor"/>
<path d="M17.7001 18.2999C17.5351 18.2999 17.4001 18.1649 17.4001 17.9999V17.0999H16.2001V17.9999C16.2001 18.1649 16.0651 18.2999 15.9001 18.2999C15.7351 18.2999 15.6001 18.1649 15.6001 17.9999V16.7999C15.6001 16.6349 15.7351 16.4999 15.9001 16.4999H17.7001C17.8651 16.4999 18.0001 16.6349 18.0001 16.7999V17.9999C18.0001 18.1649 17.8651 18.2999 17.7001 18.2999Z" fill="currentColor"/>
<path d="M18.3 19.5H15.3C14.9699 19.5 14.7 19.23 14.7 18.9V18.3C14.7 17.9699 14.9699 17.7 15.3 17.7H18.3C18.63 17.7 18.9 17.9699 18.9 18.3V18.9C18.9 19.23 18.63 19.5 18.3 19.5ZM15.3 18.3V18.9H18.3V18.3H15.3Z" fill="currentColor"/>
<path d="M15.6001 21C15.435 21 15.3 20.865 15.3 20.7V19.2C15.3 19.035 15.435 18.9 15.6001 18.9C15.7651 18.9 15.9001 19.035 15.9001 19.2V20.7C15.9001 20.865 15.7651 21 15.6001 21Z" fill="currentColor"/>
<path d="M18 21C17.835 21 17.7 20.865 17.7 20.7V19.2C17.7 19.035 17.835 18.9 18 18.9C18.165 18.9 18.3 19.035 18.3 19.2V20.7C18.3 20.865 18.165 21 18 21Z" fill="currentColor"/>
<path d="M20.1001 21C19.935 21 19.8 20.865 19.8 20.7V16.5C19.8 16.335 19.935 16.2 20.1001 16.2C20.2651 16.2 20.4001 16.335 20.4001 16.5V20.7C20.4001 20.865 20.2651 21 20.1001 21Z" fill="currentColor"/>
<path d="M13.5 21C13.335 21 13.2 20.865 13.2 20.7V16.5C13.2 16.335 13.335 16.2 13.5 16.2C13.665 16.2 13.8 16.335 13.8 16.5V20.7C13.8 20.865 13.665 21 13.5 21Z" fill="currentColor"/>
<path d="M18.9001 12.9001H10.7999C10.6349 12.9001 10.4999 12.7651 10.4999 12.6001C10.4999 12.4351 10.6349 12.3001 10.7999 12.3001H18.9001V11.7001H5.1V12.3001H9.60012C9.76513 12.3001 9.90012 12.4351 9.90012 12.6001C9.90012 12.7651 9.76513 12.9001 9.60012 12.9001H5.1C4.76999 12.9001 4.5 12.6301 4.5 12.3001V11.7001C4.5 11.3701 4.76999 11.1001 5.1 11.1001H18.9001C19.2301 11.1001 19.5001 11.3701 19.5001 11.7001V12.3001C19.5001 12.6301 19.2301 12.9001 18.9001 12.9001Z" fill="currentColor"/>
<path d="M5.6999 10.5C5.5349 10.5 5.3999 10.365 5.3999 10.2V4.20001C5.3999 3.53701 5.93691 3 6.59991 3H14.7C14.8651 3 15 3.135 15 3.3C15 3.465 14.8651 3.6 14.7 3.6H6.59991C6.2699 3.6 5.99991 3.87 5.99991 4.20001V10.2C5.99991 10.365 5.86491 10.5 5.6999 10.5Z" fill="currentColor"/>
<path d="M18.2999 10.5C18.1349 10.5 17.9999 10.365 17.9999 10.2V4.20001C17.9999 3.87 17.7299 3.6 17.3999 3.6H15.8999C15.7349 3.6 15.5999 3.465 15.5999 3.3C15.5999 3.135 15.7349 3 15.8999 3H17.3999C18.0629 3 18.5999 3.53701 18.5999 4.20001V10.2C18.5999 10.365 18.4649 10.5 18.2999 10.5Z" fill="currentColor"/>
<path d="M15 11.7H13.8C13.635 11.7 13.5 11.565 13.5 11.4V10.2C13.5 10.035 13.635 9.90002 13.8 9.90002H15C15.165 9.90002 15.3 10.035 15.3 10.2V11.4C15.3 11.565 15.165 11.7 15 11.7ZM14.1 11.1H14.7V10.5H14.1V11.1Z" fill="currentColor"/>
<path d="M16.8 11.7H15C14.835 11.7 14.7 11.565 14.7 11.4V10.2C14.7 10.035 14.835 9.90002 15 9.90002H16.8C16.965 9.90002 17.1 10.035 17.1 10.2V11.4C17.1 11.565 16.965 11.7 16.8 11.7ZM15.3 11.1H16.5V10.5H15.3V11.1Z" fill="currentColor"/>
</svg>
