<svg width="64" height="64" viewBox="0 0 64 64" fill="none" xmlns="http://www.w3.org/2000/svg">
<path d="M45.2617 19.7349V25.9704M45.2572 12.1692C45.1823 12.1692 45.1082 12.1544 45.0392 12.1256C44.9701 12.0969 44.9074 12.0547 44.8547 12.0016C44.802 11.9485 44.7603 11.8854 44.7321 11.8161C44.7039 11.7468 44.6897 11.6726 44.6903 11.5978C44.6903 11.2778 44.9463 11.0264 45.2572 11.0264M45.2663 12.1692C45.4171 12.168 45.5612 12.1073 45.6674 12.0002C45.7736 11.8932 45.8332 11.7486 45.8332 11.5978C45.8338 11.523 45.8195 11.4488 45.7913 11.3795C45.7631 11.3102 45.7214 11.2471 45.6688 11.194C45.6161 11.1409 45.5534 11.0987 45.4843 11.0699C45.4152 11.0412 45.3411 11.0264 45.2663 11.0264M3.91772 58.8069H58.8069M9.09258 31.2184C9.09258 32.3824 9.32186 33.535 9.76731 34.6105C10.2128 35.6859 10.8657 36.6631 11.6888 37.4862C12.5119 38.3093 13.489 38.9622 14.5645 39.4076C15.6399 39.8531 16.7925 40.0824 17.9566 40.0824C19.1206 40.0824 20.2733 39.8531 21.3487 39.4076C22.4241 38.9622 23.4013 38.3093 24.2244 37.4862C25.0475 36.6631 25.7004 35.6859 26.1459 34.6105C26.5913 33.535 26.8206 32.3824 26.8206 31.2184C26.8206 30.0543 26.5913 28.9017 26.1459 27.8263C25.7004 26.7508 25.0475 25.7737 24.2244 24.9506C23.4013 24.1275 22.4241 23.4746 21.3487 23.0291C20.2733 22.5836 19.1206 22.3544 17.9566 22.3544C16.7925 22.3544 15.6399 22.5836 14.5645 23.0291C13.489 23.4746 12.5119 24.1275 11.6888 24.9506C10.8657 25.7737 10.2128 26.7508 9.76731 27.8263C9.32186 28.9017 9.09258 30.0543 9.09258 31.2184Z" stroke="#2C7fff" stroke-width="3" stroke-linecap="round" stroke-linejoin="round"/>
<path d="M3.90869 58.8115V54.1303C3.90869 50.4052 5.3885 46.8326 8.02259 44.1985C10.6567 41.5644 14.2293 40.0846 17.9544 40.0846C21.6796 40.0846 25.2521 41.5644 27.8862 44.1985C30.5203 46.8326 32.0001 50.4052 32.0001 54.1303V58.8115M33.8013 30.7018C36.4577 33.3012 39.9252 34.9113 43.6252 35.2633C47.3252 35.6154 51.0341 34.6882 54.1332 32.6364C57.2322 30.5846 59.5341 27.5323 60.6549 23.9886C61.7756 20.4448 61.6474 16.624 60.2917 13.1633C58.936 9.70266 56.4347 6.81146 53.2051 4.97199C49.9755 3.13252 46.2128 2.45599 42.5447 3.05525C38.8766 3.65452 35.5248 5.49334 33.0485 8.265C30.5723 11.0367 29.1211 14.5736 28.9373 18.2857" stroke="#2C7fff" stroke-width="3" stroke-linecap="round" stroke-linejoin="round"/>
</svg>
