<svg width="24" height="24" viewBox="0 0 24 24" fill="none" xmlns="http://www.w3.org/2000/svg">
<path d="M18.6964 13.7842C19.5398 13.8748 20.2965 14.2548 20.8648 14.8231C21.5198 15.4781 21.9243 16.3827 21.9243 17.3818C21.9243 18.3802 21.5189 19.2847 20.864 19.9396C20.2098 20.5954 19.3052 21 18.3061 21C17.307 21 16.4024 20.5946 15.7475 19.9404L15.7308 19.9222C15.5734 19.7624 15.4303 19.5883 15.3047 19.4023H6.55942C5.83211 19.4023 5.17077 19.1042 4.69066 18.6249L4.68907 18.6233C4.20976 18.1432 3.91248 17.4819 3.91248 16.7554V6.82902C3.91248 6.66051 4.0492 6.52379 4.21771 6.52379C4.38623 6.52379 4.52295 6.66051 4.52295 6.82902V16.7554C4.52295 17.3158 4.75187 17.8253 5.1199 18.1933C5.48872 18.5629 5.99824 18.7918 6.55941 18.7918H14.9732C14.7888 18.3586 14.6871 17.8817 14.6871 17.3817C14.6871 16.3826 15.0925 15.4772 15.7467 14.8231C16.3531 14.2166 17.1742 13.8247 18.086 13.7699V5.76301H3.65418C3.47374 5.76301 3.31 5.68909 3.19157 5.57144C3.07393 5.45221 3 5.28847 3 5.10963V3.65501C3 3.47537 3.07392 3.31083 3.19157 3.1932C3.31 3.07476 3.47374 3.00163 3.65418 3.00163H14.6258C14.7944 3.00163 14.9311 3.13835 14.9311 3.30686C14.9311 3.47538 14.7944 3.6121 14.6258 3.6121H3.65418C3.64225 3.6121 3.63112 3.61687 3.62318 3.62481C3.61523 3.63276 3.61046 3.64389 3.61046 3.65502V5.10963C3.61046 5.12156 3.61523 5.13269 3.62238 5.13984C3.63112 5.14779 3.64225 5.15256 3.65418 5.15256H18.9546C18.9666 5.15256 18.9769 5.14779 18.9848 5.13984C18.9928 5.13189 18.9976 5.12076 18.9976 5.10963V3.65502C18.9976 3.6431 18.9928 3.63276 18.9848 3.62481C18.9769 3.61687 18.9658 3.6121 18.9546 3.6121H17.2496C17.0811 3.6121 16.9444 3.47538 16.9444 3.30686C16.9444 3.13835 17.0811 3.00163 17.2496 3.00163H18.9546C19.1343 3.00163 19.298 3.07556 19.4165 3.1932C19.5349 3.31163 19.608 3.47538 19.608 3.65501V5.10963C19.608 5.28927 19.5341 5.45301 19.4165 5.57144C19.298 5.68988 19.1343 5.76301 18.9546 5.76301H18.6963L18.6964 13.7842ZM11.9162 14.7667H13.8795C14.048 14.7667 14.1848 14.9034 14.1848 15.0719V17.0353C14.1848 17.2038 14.048 17.3405 13.8795 17.3405H11.9162C11.7477 17.3405 11.611 17.2038 11.611 17.0353V15.0719C11.611 14.9034 11.7477 14.7667 11.9162 14.7667ZM13.5743 15.3772H12.2214V16.73H13.5743V15.3772ZM8.72802 14.7667H10.6913C10.8599 14.7667 10.9966 14.9034 10.9966 15.0719V17.0353C10.9966 17.2038 10.8599 17.3405 10.6913 17.3405H8.72802C8.5595 17.3405 8.42278 17.2038 8.42278 17.0353V15.0719C8.42278 14.9034 8.5595 14.7667 8.72802 14.7667ZM10.3861 15.3772H9.03325V16.73H10.3861V15.3772ZM5.53985 14.7667H7.50318C7.67169 14.7667 7.80841 14.9034 7.80841 15.0719V17.0353C7.80841 17.2038 7.67169 17.3405 7.50318 17.3405H5.53985C5.37133 17.3405 5.23461 17.2038 5.23461 17.0353V15.0719C5.23461 14.9034 5.37133 14.7667 5.53985 14.7667ZM7.19795 15.3772H5.84508V16.73H7.19795V15.3772ZM15.103 10.6341H17.0664C17.2349 10.6341 17.3716 10.7708 17.3716 10.9393V12.9026C17.3716 13.0711 17.2349 13.2079 17.0664 13.2079H15.103C14.9345 13.2079 14.7978 13.0711 14.7978 12.9026V10.9393C14.7978 10.7708 14.9345 10.6341 15.103 10.6341ZM16.7612 11.2445H15.4083V12.5974H16.7612V11.2445ZM11.9149 10.6341H13.8782C14.0467 10.6341 14.1834 10.7708 14.1834 10.9393V12.9026C14.1834 13.0711 14.0467 13.2079 13.8782 13.2079H11.9149C11.7464 13.2079 11.6097 13.0711 11.6097 12.9026V10.9393C11.6097 10.7708 11.7464 10.6341 11.9149 10.6341ZM13.573 11.2445H12.2201V12.5974H13.573V11.2445ZM8.72671 10.6341H10.69C10.8586 10.6341 10.9953 10.7708 10.9953 10.9393V12.9026C10.9953 13.0711 10.8586 13.2079 10.69 13.2079H8.72671C8.5582 13.2079 8.42148 13.0711 8.42148 12.9026V10.9393C8.42148 10.7708 8.5582 10.6341 8.72671 10.6341ZM10.3848 11.2445H9.03195V12.5974H10.3848V11.2445ZM5.53854 10.6341H7.50188C7.67039 10.6341 7.80711 10.7708 7.80711 10.9393V12.9026C7.80711 13.0711 7.67039 13.2079 7.50188 13.2079H5.53854C5.37003 13.2079 5.23331 13.0711 5.23331 12.9026V10.9393C5.23331 10.7708 5.37003 10.6341 5.53854 10.6341ZM7.19665 11.2445H5.84378V12.5974H7.19665V11.2445ZM15.1017 6.50142H17.0651C17.2336 6.50142 17.3703 6.63814 17.3703 6.80665V8.76998C17.3703 8.9385 17.2336 9.07522 17.0651 9.07522H15.1017C14.9332 9.07522 14.7965 8.9385 14.7965 8.76998V6.80665C14.7965 6.63814 14.9332 6.50142 15.1017 6.50142ZM16.7599 7.11188H15.407V8.46475H16.7599V7.11188ZM11.9136 6.50142H13.8769C14.0454 6.50142 14.1821 6.63814 14.1821 6.80665V8.76998C14.1821 8.9385 14.0454 9.07522 13.8769 9.07522H11.9136C11.7451 9.07522 11.6083 8.9385 11.6083 8.76998V6.80665C11.6083 6.63814 11.7451 6.50142 11.9136 6.50142ZM13.5717 7.11188H12.2188V8.46475H13.5717V7.11188ZM8.72541 6.50142H10.6887C10.8573 6.50142 10.994 6.63814 10.994 6.80665V8.76998C10.994 8.9385 10.8573 9.07522 10.6887 9.07522H8.72541C8.5569 9.07522 8.42018 8.9385 8.42018 8.76998V6.80665C8.42018 6.63814 8.5569 6.50142 8.72541 6.50142ZM10.3835 7.11188H9.03064V8.46475H10.3835V7.11188ZM15.9611 3C16.1296 3 16.2664 3.13672 16.2664 3.30523C16.2664 3.47374 16.1296 3.61046 15.9611 3.61046H15.9079C15.7393 3.61046 15.6026 3.47374 15.6026 3.30523C15.6026 3.13672 15.7393 3 15.9079 3H15.9611ZM15.7179 18.9213C15.725 18.9324 15.7322 18.9436 15.7386 18.9547C15.8586 19.1502 16.0009 19.3307 16.1606 19.4928L16.1757 19.5071C16.7202 20.0516 17.4722 20.3878 18.3028 20.3878C19.1334 20.3878 19.8862 20.0508 20.4299 19.5071C20.9743 18.9642 21.3106 18.2115 21.3106 17.3801C21.3106 16.5494 20.9736 15.7967 20.4299 15.253C19.9044 14.7276 19.1851 14.3953 18.3879 14.3731H18.372L18.302 14.3723C17.4714 14.3723 16.7194 14.7093 16.1749 15.253C15.6305 15.7975 15.2942 16.5494 15.2942 17.3801C15.2942 17.9436 15.4484 18.4706 15.7171 18.9205L15.7179 18.9213ZM16.694 17.6606C16.6097 17.5152 16.659 17.3284 16.8045 17.2449C16.95 17.1607 17.1367 17.2099 17.2202 17.3554L17.8052 18.3689L19.3847 15.633C19.4681 15.4875 19.6541 15.4374 19.7996 15.5209C19.9451 15.6044 19.9951 15.7904 19.9117 15.9358L18.0779 19.1129C18.0525 19.1646 18.0119 19.2099 17.9579 19.2409C17.8124 19.3251 17.6256 19.2758 17.5421 19.1304L16.694 17.6614L16.694 17.6606Z" fill="#2C7fff"/>
</svg>
