<svg width="24" height="24" viewBox="0 0 24 24" fill="none" xmlns="http://www.w3.org/2000/svg">
<path d="M18.4344 12.4324H14.6473C14.699 12.2997 14.7301 12.1576 14.7301 12.0071C14.7301 11.6147 14.5353 11.2685 14.2389 11.054L13.5888 9.59748C13.4006 9.17221 12.8709 8.96803 12.4362 9.1581C11.9996 9.3538 11.803 9.86846 11.9987 10.305L12.233 10.8282H10.784L9.8055 9.26911C9.53171 8.83254 9.11113 8.50135 8.62186 8.33576C7.46363 7.94623 6.19249 8.56627 5.78783 9.7198L4.38874 13.7129C4.21844 14.1993 4.13188 14.7074 4.13188 15.223C4.13188 16.0848 4.50917 16.8592 5.10476 17.3945H3.75271V11.7484C3.75271 11.5405 3.58429 11.372 3.37635 11.372C3.16842 11.372 3 11.5405 3 11.7484V17.772C3 17.9799 3.16842 18.1483 3.37635 18.1483H9.97849V20.6227C9.97849 20.8307 10.1469 20.9991 10.3548 20.9991C10.5628 20.9991 10.7312 20.8307 10.7312 20.6227V17.7719C10.7312 17.5639 10.5628 17.3955 10.3548 17.3955H7.05618C5.85843 17.3955 4.88463 16.4207 4.88463 15.2239C4.88463 14.794 4.95708 14.3696 5.09915 13.9632L6.49825 9.97008C6.7664 9.2042 7.61038 8.79022 8.38095 9.05084C8.70651 9.15998 8.985 9.38015 9.16753 9.67088L10.2571 11.4059C10.3257 11.5159 10.4462 11.5818 10.576 11.5818H13.5519C13.7862 11.5818 13.9772 11.7728 13.9772 12.0071C13.9772 12.2414 13.7862 12.4324 13.5519 12.4324H10.0415L9.70471 11.9882C9.70282 11.9854 9.70094 11.9826 9.69906 11.9807L8.89837 10.9241C8.77229 10.7585 8.53613 10.7256 8.37148 10.8517C8.20588 10.9768 8.17295 11.213 8.29903 11.3786L8.99058 12.2912L7.79001 14.9812C7.63476 15.3284 7.69404 15.7405 7.93961 16.0312C8.12967 16.2552 8.40629 16.3841 8.69983 16.3841H10.6446C11.3494 16.3841 11.9233 16.9571 11.9233 17.6627V20.6237C11.9233 20.8316 12.0917 21 12.2996 21C12.5076 21 12.676 20.8316 12.676 20.6237V17.6627C12.676 17.1763 12.4972 16.735 12.2103 16.3841H17.8603C18.0682 16.3841 18.2366 16.2156 18.2366 16.0077V14.4506H18.4351C18.6431 14.4506 18.8115 14.2821 18.8115 14.0742V12.8087C18.8105 12.6008 18.6424 12.4324 18.4344 12.4324ZM12.6857 9.99744C12.6697 9.96169 12.6753 9.9297 12.6829 9.909C12.6904 9.8883 12.7073 9.86101 12.7412 9.84596C12.7892 9.82432 12.8663 9.82432 12.9011 9.90241L13.3142 10.8283H13.0573L12.6857 9.99744ZM13.5522 13.1851H18.0591V13.6978H17.8606L11.2847 13.6969H11.0862V13.1841L13.5522 13.1851ZM8.69927 15.6303C8.62777 15.6303 8.56003 15.5993 8.51298 15.5438C8.45276 15.4732 8.43865 15.3725 8.47629 15.2869L9.50845 12.9742L9.55455 13.0344C9.62606 13.1285 9.73708 13.1831 9.85469 13.1831H10.3336V14.0722C10.3336 14.2802 10.502 14.4486 10.71 14.4486H10.9085V15.6557C10.821 15.6444 10.7354 15.6294 10.645 15.6294L8.69927 15.6303ZM17.4834 15.6303H11.6612V14.4495H17.4844L17.4834 15.6303Z" fill="black"/>
<path d="M9.73109 8.12038C10.9994 8.12038 12.0325 7.08822 12.0325 5.81898C12.0325 4.55068 11.0003 3.51758 9.73109 3.51758C8.46279 3.51852 7.42969 4.55068 7.42969 5.81898C7.42969 7.08822 8.46279 8.12038 9.73109 8.12038ZM9.73109 4.27134C10.5845 4.27134 11.2798 4.96571 11.2798 5.82004C11.2798 6.67343 10.5854 7.36874 9.73109 7.36874C8.8777 7.3678 8.18239 6.67343 8.18239 5.8191C8.18239 4.96571 8.8777 4.27134 9.73109 4.27134Z" fill="black"/>
<path d="M16.9997 3C15.3334 3 13.9775 4.35581 13.9775 6.02311C13.9775 7.68942 15.3334 9.04526 16.9997 9.04526C18.666 9.04526 20.0228 7.68945 20.0228 6.02311C20.0228 4.35586 18.667 3 16.9997 3ZM16.9997 8.29255C15.7483 8.29255 14.7303 7.27451 14.7303 6.02313C14.7303 4.77176 15.7483 3.75278 16.9997 3.75278C18.2511 3.75278 19.27 4.77082 19.27 6.02313C19.27 7.27451 18.252 8.29255 16.9997 8.29255Z" fill="black"/>
<path d="M17.1784 4.8988C16.9705 4.8988 16.8021 5.06722 16.8021 5.27516V5.86696H16.2074C15.9995 5.86696 15.8311 6.03538 15.8311 6.24332C15.8311 6.45125 15.9995 6.61967 16.2074 6.61967H17.1784C17.3863 6.61967 17.5547 6.45125 17.5547 6.24332V5.27516C17.5547 5.06722 17.3863 4.8988 17.1784 4.8988Z" fill="black"/>
</svg>
