<svg width="24" height="24" viewBox="0 0 24 24" fill="none" xmlns="http://www.w3.org/2000/svg">
<path d="M11.8245 11.5938C14.1949 11.5938 16.1214 9.6653 16.1214 7.29688C16.1214 4.92847 14.1929 3 11.8245 3C9.45606 3 7.52759 4.92847 7.52759 7.29688C7.52759 9.6653 9.45606 11.5938 11.8245 11.5938ZM11.8245 4.54072C13.3442 4.54072 14.5786 5.77715 14.5786 7.29483C14.5786 8.81148 13.3421 10.0489 11.8245 10.0489C10.3078 10.0489 9.07036 8.8125 9.07036 7.29483C9.07036 5.77818 10.3068 4.54072 11.8245 4.54072Z" fill="black"/>
<path d="M5.69143 20.997H16.4528C16.8797 20.997 17.2242 20.6525 17.2242 20.2256C17.2242 19.7987 16.8797 19.4542 16.4528 19.4542H5.69143C5.60907 19.4542 5.54277 19.3869 5.54277 19.3056V17.7939C5.54277 15.8343 7.13677 14.2404 9.0963 14.2404H14.5523C16.5119 14.2404 18.1058 15.8344 18.1058 17.7939V20.2286C18.1058 20.6555 18.4503 21 18.8772 21C19.3041 21 19.6486 20.6555 19.6486 20.2286V17.7939C19.6486 14.9835 17.3626 12.6976 14.5523 12.6976H9.0963C6.28588 12.6976 4 14.9837 4 17.7939V19.3056C4 20.2387 4.75833 20.997 5.69143 20.997Z" fill="black"/>
</svg>
