<svg width="24" height="24" viewBox="0 0 24 24" fill="none" xmlns="http://www.w3.org/2000/svg">
<path d="M10.1348 8.58778H9.20421V8.27757C9.20421 8.10618 9.06539 7.96736 8.894 7.96736C8.72261 7.96736 8.58379 8.10618 8.58379 8.27757V8.58778H5.48168V8.27757C5.48168 8.10618 5.34286 7.96736 5.17147 7.96736C5.00008 7.96736 4.86126 8.10618 4.86126 8.27757V8.58778H3.93063C3.41647 8.58778 3 9.00425 3 9.51841V14.1717C3 14.6858 3.41647 15.1023 3.93063 15.1023H6.74744C6.91806 16.2222 7.92003 17.0225 9.05005 16.9411C10.1792 16.8604 11.057 15.9243 11.0656 14.7921V9.51865C11.0656 9.00448 10.6491 8.58802 10.1349 8.58802L10.1348 8.58778ZM3.62052 9.51841C3.62052 9.34702 3.75934 9.2082 3.93073 9.2082H4.86136C4.86136 9.37959 5.00018 9.51841 5.17157 9.51841C5.34296 9.51841 5.48178 9.37959 5.48178 9.2082H8.58389C8.58389 9.37959 8.72271 9.51841 8.8941 9.51841C9.06549 9.51841 9.20431 9.37959 9.20431 9.2082H10.1349C10.2171 9.2082 10.2962 9.24077 10.3544 9.29894C10.4126 9.3571 10.4452 9.43621 10.4452 9.51842V10.7965H3.62053L3.62052 9.51841ZM8.894 16.343C8.26659 16.343 7.70124 15.9654 7.46082 15.3853C7.22118 14.8059 7.35379 14.139 7.79739 13.6954C8.241 13.2518 8.90795 13.1192 9.48726 13.3588C10.0674 13.5992 10.445 14.1646 10.445 14.792C10.445 15.203 10.2814 15.5978 9.99056 15.8886C9.69975 16.1794 9.30502 16.343 8.894 16.343ZM8.894 12.6205C7.81524 12.6221 6.9017 13.4147 6.74744 14.4818H3.93063C3.75924 14.4818 3.62042 14.343 3.62042 14.1716V11.4169H10.445V13.2782C10.0379 12.8594 9.47874 12.6221 8.894 12.6205ZM14.1675 4.24474C14.169 3.77089 13.9007 3.33737 13.4757 3.12798C13.0507 2.91858 12.5435 2.969 12.1682 3.25827C11.7936 3.54831 11.616 4.02604 11.7114 4.4898C11.806 4.95433 12.1573 5.32348 12.6164 5.44215V8.3209C12.0759 8.46747 11.7013 8.95837 11.7013 9.5183C11.7013 10.0782 12.0759 10.5691 12.6164 10.7157V13.2843C12.0735 13.4294 11.6951 13.921 11.6951 14.4833C11.6951 15.0456 12.0735 15.5373 12.6164 15.6823C12.6149 15.6955 12.6149 15.7094 12.6164 15.7226V18.5579C12.0115 18.7138 11.6168 19.2962 11.6959 19.9158C11.7742 20.5355 12.3016 21 12.9266 21C13.5517 21 14.0791 20.5355 14.1574 19.9158C14.2365 19.2962 13.8418 18.7138 13.2368 18.5579V15.7226C13.2384 15.7094 13.2384 15.6955 13.2368 15.6823C13.7797 15.5373 14.1582 15.0456 14.1582 14.4833C14.1582 13.9211 13.7797 13.4294 13.2368 13.2843V10.7157C13.7774 10.5691 14.152 10.0782 14.152 9.5183C14.152 8.95837 13.7774 8.46746 13.2368 8.3209V5.44215C13.7836 5.301 14.1659 4.80931 14.1675 4.24474ZM12.3062 4.24474C12.3062 3.99347 12.4574 3.7678 12.6893 3.67163C12.9212 3.57546 13.188 3.62897 13.3656 3.80579C13.5424 3.98339 13.5959 4.25017 13.4997 4.48204C13.4036 4.71393 13.1779 4.86515 12.9266 4.86515C12.5838 4.86515 12.3062 4.58753 12.3062 4.24474ZM13.5471 19.7553C13.5471 20.0065 13.3958 20.2322 13.1639 20.3284C12.9321 20.4245 12.6653 20.371 12.4877 20.1942C12.3109 20.0166 12.2574 19.7498 12.3535 19.5179C12.4497 19.2861 12.6754 19.1348 12.9266 19.1348C13.091 19.1348 13.2493 19.2 13.3656 19.3163C13.4819 19.4326 13.5471 19.5908 13.5471 19.7553ZM13.5471 14.4818C13.5471 14.733 13.3958 14.9587 13.1639 15.0549C12.9321 15.1511 12.6653 15.0975 12.4877 14.9207C12.3109 14.7431 12.2574 14.4763 12.3535 14.2445C12.4497 14.0126 12.6754 13.8614 12.9266 13.8614C13.091 13.8614 13.2493 13.9265 13.3656 14.0428C13.4819 14.1592 13.5471 14.3174 13.5471 14.4818ZM13.5471 9.51841C13.5471 9.76968 13.3958 9.99535 13.1639 10.0915C12.9321 10.1877 12.6653 10.1342 12.4877 9.95735C12.3109 9.77976 12.2574 9.51297 12.3535 9.28111C12.4497 9.04922 12.6754 8.89799 12.9266 8.89799C13.091 8.89799 13.2493 8.96314 13.3656 9.07947C13.4819 9.1958 13.5471 9.354 13.5471 9.51841ZM20.0614 3.00409H15.7184C15.2043 3.00409 14.7878 3.42056 14.7878 3.93472V5.17557C14.7878 5.68973 15.2043 6.1062 15.7184 6.1062H20.0614C20.5755 6.1062 20.992 5.68973 20.992 5.17557V3.93472C20.992 3.42056 20.5755 3.00409 20.0614 3.00409ZM20.3716 5.17566C20.3716 5.25787 20.339 5.33697 20.2808 5.39514C20.2227 5.45332 20.1436 5.48588 20.0614 5.48588H15.7184C15.547 5.48588 15.4082 5.34706 15.4082 5.17567V3.93483C15.4082 3.76344 15.547 3.62462 15.7184 3.62462H20.0614C20.1436 3.62462 20.2227 3.65719 20.2808 3.71536C20.339 3.77352 20.3716 3.85262 20.3716 3.93484V5.17566ZM20.0614 7.96746H15.7184C15.2043 7.96746 14.7878 8.38392 14.7878 8.89809V10.1389C14.7878 10.6531 15.2043 11.0696 15.7184 11.0696H20.0614C20.5755 11.0696 20.992 10.6531 20.992 10.1389V8.89809C20.992 8.38392 20.5755 7.96746 20.0614 7.96746ZM20.3716 10.139C20.3716 10.2212 20.339 10.3003 20.2808 10.3585C20.2227 10.4167 20.1436 10.4492 20.0614 10.4492H15.7184C15.547 10.4492 15.4082 10.3104 15.4082 10.139V8.89819C15.4082 8.7268 15.547 8.58798 15.7184 8.58798H20.0614C20.1436 8.58798 20.2227 8.62056 20.2808 8.67872C20.339 8.73689 20.3716 8.81599 20.3716 8.8982V10.139ZM20.0614 12.9308H15.7184C15.2043 12.9308 14.7878 13.3473 14.7878 13.8615V15.1023C14.7878 15.6165 15.2043 16.0329 15.7184 16.0329H20.0614C20.5755 16.0329 20.992 15.6165 20.992 15.1023V13.8615C20.992 13.3473 20.5755 12.9308 20.0614 12.9308ZM20.3716 15.1024C20.3716 15.1846 20.339 15.2637 20.2808 15.3219C20.2227 15.38 20.1436 15.4126 20.0614 15.4126H15.7184C15.547 15.4126 15.4082 15.2738 15.4082 15.1024V13.8616C15.4082 13.6902 15.547 13.5513 15.7184 13.5513H20.0614C20.1436 13.5513 20.2227 13.5839 20.2808 13.6421C20.339 13.7003 20.3716 13.7794 20.3716 13.8616V15.1024ZM20.0614 17.8942H15.7184C15.2043 17.8942 14.7878 18.3107 14.7878 18.8248V20.0657C14.7878 20.5798 15.2043 20.9963 15.7184 20.9963H20.0614C20.5755 20.9963 20.992 20.5798 20.992 20.0657V18.8248C20.992 18.3107 20.5755 17.8942 20.0614 17.8942ZM20.3716 20.0658C20.3716 20.148 20.339 20.2271 20.2808 20.2852C20.2227 20.3434 20.1436 20.376 20.0614 20.376H15.7184C15.547 20.376 15.4082 20.2372 15.4082 20.0658V18.8249C15.4082 18.6535 15.547 18.5147 15.7184 18.5147H20.0614C20.1436 18.5147 20.2227 18.5473 20.2808 18.6055C20.339 18.6636 20.3716 18.7427 20.3716 18.8249V20.0658ZM19.7512 4.55524C19.7512 4.63745 19.7186 4.71655 19.6604 4.77472C19.6023 4.83289 19.5232 4.86546 19.4409 4.86546H16.3388C16.1675 4.86546 16.0286 4.72664 16.0286 4.55525C16.0286 4.38386 16.1675 4.24504 16.3388 4.24504H19.4409C19.5232 4.24504 19.6023 4.27761 19.6604 4.33578C19.7186 4.39394 19.7512 4.47303 19.7512 4.55524ZM19.7512 9.51861C19.7512 9.60081 19.7186 9.67992 19.6604 9.73809C19.6023 9.79626 19.5232 9.82883 19.4409 9.82883H16.3388C16.1675 9.82883 16.0286 9.69001 16.0286 9.51862C16.0286 9.34722 16.1675 9.20841 16.3388 9.20841H19.4409C19.5232 9.20841 19.6023 9.24098 19.6604 9.29914C19.7186 9.35731 19.7512 9.4364 19.7512 9.51861ZM19.7512 14.482C19.7512 14.5642 19.7186 14.6433 19.6604 14.7015C19.6023 14.7596 19.5232 14.7922 19.4409 14.7922H16.3388C16.1675 14.7922 16.0286 14.6534 16.0286 14.482C16.0286 14.3106 16.1675 14.1718 16.3388 14.1718H19.4409C19.5232 14.1718 19.6023 14.2043 19.6604 14.2625C19.7186 14.3207 19.7512 14.3998 19.7512 14.482ZM19.7512 19.4453C19.7512 19.5275 19.7186 19.6067 19.6604 19.6648C19.6023 19.723 19.5232 19.7556 19.4409 19.7556H16.3388C16.1675 19.7556 16.0286 19.6167 16.0286 19.4453C16.0286 19.274 16.1675 19.1351 16.3388 19.1351H19.4409C19.5232 19.1351 19.6023 19.1677 19.6604 19.2259C19.7186 19.284 19.7512 19.3631 19.7512 19.4453ZM9.78711 14.7921C9.78711 14.8743 9.75453 14.9534 9.69637 15.0116C9.6382 15.0697 9.5591 15.1023 9.47689 15.1023H8.89369C8.7223 15.1023 8.58348 14.9635 8.58348 14.7921V14.1717C8.58348 14.0003 8.7223 13.8615 8.89369 13.8615C9.06508 13.8615 9.2039 14.0003 9.2039 14.1717V14.4819H9.47689C9.55909 14.4819 9.6382 14.5145 9.69637 14.5726C9.75454 14.6308 9.78711 14.7099 9.78711 14.7921Z" fill="currentColor"/>
</svg>
